# xmcd CD database file
#
# Track frame offsets:
#	150
#	15867
#	29198
#	47712
#	78058
#	93941
#	113000
#	135693
#	147109
#	170154
#	186996
#	211538
#
# Disc length: 3040 seconds
#
# Revision: 0
# Processed by: cddbd v1.4PL0 Copyright (c) Steve Scherf et al.
# Submitted via: CDex 1.51
#
DISCID=970bde0c
DTITLE=Patty Tuite - Patty Tuite and Friends Live at the Tic Toc
DYEAR=2000
DGENRE=Blues
TTITLE0=Buzz Me
TTITLE1=Choose Your Destination
TTITLE2=Red Light
TTITLE3=Walkin' the Back Streets
TTITLE4=Bebop Baby
TTITLE5=Love Me Like a Man
TTITLE6=Better Off with the Blues
TTITLE7=Hey Bartender
TTITLE8=Route 66
TTITLE9=I Can't Stop
TTITLE10=Baby Whatcha Want Me To Do
TTITLE11=The Best Thing We Never Had
EXTD=YEAR: 2000
EXTT0=
EXTT1=
EXTT2=
EXTT3=
EXTT4=
EXTT5=
EXTT6=
EXTT7=
EXTT8=
EXTT9=
EXTT10=
EXTT11=
PLAYORDER=
